# xmcd
#
# Track frame offsets: 
#        150
#        15375
#        29457
#        43007
#        55139
#        72900
#        85969
#        104513
#        119261
#        134162
#        145486
#        158193
#        172833
#        188504
#        203088
#        218369
#        234367
#        252667
#        266022
#        279763
#        294013
#        311746
#
# Disc length: 4405 seconds
#
# Revision: 0
# Processed by: cddbd v1.5.2PL0 Copyright (c) Steve Scherf et al.
# Submitted via: ExactAudioCopy v0.95b4
#
DISCID=39113316
DTITLE=Asleep at the Wheel - Western Standard Time, Keepin' Me Up Nigh
DTITLE=ts
DYEAR=1990
DGENRE=Country
TTITLE0=Chattanooga Choo Choo
TTITLE1=Don't Let Go
TTITLE2=Hot Rod Lincoln
TTITLE3=That's What I Like 'Bout the South
TTITLE4=That Lucky Old Sun
TTITLE5=Walk On By
TTITLE6=San Antonio Rose
TTITLE7=Roly Poly
TTITLE8=Sugarfoot Rag
TTITLE9=Walking the Floor Over You
TTITLE10=Keepin' Me Up Nights
TTITLE11=Boot Scootin' Boogie
TTITLE12=Dance With Who Brung You
TTITLE13=Quittin' Time
TTITLE14=Eyes
TTITLE15=Goin' Home
TTITLE16=That's the Way Love Is
TTITLE17=Gone But Not Forgotten
TTITLE18=You Don't Have to Go to Memphis
TTITLE19=Beat Me Daddy (Eight to the Bar)
TTITLE20=Texas Fiddle Man
TTITLE21=Pedernales Stroll
EXTD=
EXTT0=
EXTT1=
EXTT2=
EXTT3=
EXTT4=
EXTT5=
EXTT6=
EXTT7=
EXTT8=
EXTT9=
EXTT10=
EXTT11=
EXTT12=
EXTT13=
EXTT14=
EXTT15=
EXTT16=
EXTT17=
EXTT18=
EXTT19=
EXTT20=
EXTT21=
PLAYORDER=
